<svg id="a" xmlns="http://www.w3.org/2000/svg" xmlns:xlink="http://www.w3.org/1999/xlink" viewBox="0 0 484.43 200.11"><defs><style>.c{fill:url(#b);}.c,.d{fill-rule:evenodd;}.e,.d{fill:#204451;}</style><linearGradient id="b" x1="2.96" y1="52.22" x2="477.76" y2="52.22" gradientTransform="matrix(1, 0, 0, 1, 0, 0)" gradientUnits="userSpaceOnUse"><stop offset="0" stop-color="#79cdf1"/><stop offset=".97" stop-color="#184182"/><stop offset="1" stop-color="#0d59a6"/></linearGradient></defs><g><path class="e" d="M57.69,175.69h-22.98v16.71c0,2.01-1.01,2.94-2.71,2.94s-2.63-.93-2.63-2.94v-34.82c0-11.3,5.73-16.4,16.95-16.4s16.95,5.11,16.95,16.4v34.74c0,2.09-1.01,3.02-2.79,3.02s-2.79-.93-2.79-3.02v-16.64Zm0-16.95c0-9.13-3.71-12.54-11.45-12.54s-11.53,3.4-11.53,12.54v11.92h22.98v-11.92Z"/><path class="e" d="M79.05,144.51c0-2.09,1.01-3.02,2.79-3.02s2.79,.93,2.79,3.02v47.82c0,2.09-1.08,3.02-2.79,3.02s-2.79-.93-2.79-3.02v-47.82Z"/><path class="e" d="M128.34,181.26c0-7.74-3.17-9.44-10.6-9.44h-11.53v20.5c0,2.09-1.08,3.02-2.79,3.02s-2.79-.93-2.79-3.02v-43.72c0-4.26,2.24-6.5,6.5-6.5h11.45c9.9,0,14.93,4.1,14.93,13.46v1.78c0,5.8-2.32,9.83-6.96,11.68v.16c4.95,1.55,7.35,5.11,7.35,11.14v11.99c0,2.09-1.08,3.02-2.79,3.02s-2.79-.93-2.79-3.02v-11.07Zm-10.45-14.47c6.73,0,10.06-2.55,10.06-9.52v-.85c0-7.04-3.33-9.29-10.06-9.29h-9.05c-1.86,0-2.63,.7-2.63,2.79v16.87h11.68Z"/><path class="e" d="M146.92,173.76c-1.93,0-2.79-1.01-2.79-2.63s.85-2.63,2.79-2.63h17.02c1.93,0,2.79,1.01,2.79,2.63s-.85,2.63-2.79,2.63h-17.02Z"/><path class="e" d="M182.36,147.14h-11.99c-1.93,0-2.71-1.01-2.71-2.55s.85-2.48,2.71-2.48h29.56c1.86,0,2.71,.93,2.71,2.48s-.77,2.55-2.71,2.55h-11.99v45.19c0,2.09-1.08,3.02-2.79,3.02s-2.79-.93-2.79-3.02v-45.19Z"/><path class="e" d="M243.18,144.59c0,1.55-.85,2.55-2.71,2.55h-20.43c-1.86,0-2.63,.7-2.63,2.79v15.17h19.96c1.86,0,2.71,.93,2.71,2.48,0,1.62-.85,2.55-2.71,2.55h-19.96v16.79c0,2.09,.77,2.79,2.63,2.79h20.43c1.86,0,2.71,1.01,2.71,2.55s-.85,2.48-2.71,2.48h-22.13c-4.26,0-6.5-2.24-6.5-6.5v-39.62c0-4.26,2.24-6.5,6.5-6.5h22.13c1.86,0,2.71,.93,2.71,2.48Z"/><path class="e" d="M254.71,157.36c0-11.14,5.73-16.17,16.71-16.17,9.59,0,14.93,3.87,16.33,12.15,.08,.46,.08,.77,.08,1.01,0,1.93-1.24,2.79-2.86,2.79-1.39,0-2.55-.62-2.79-2.4-.93-6.19-4.41-8.51-10.75-8.51-7.43,0-11.14,3.33-11.14,12.15v20.12c0,8.82,3.71,12.15,11.14,12.15,6.34,0,9.83-2.32,10.75-8.51,.23-1.78,1.39-2.4,2.79-2.4,1.62,0,2.86,.85,2.86,2.79,0,.23,0,.54-.08,1.01-1.39,8.28-6.73,12.15-16.33,12.15-10.99,0-16.71-5.03-16.71-16.17v-22.13Z"/><path class="e" d="M329.54,170.12h-23.29v22.21c0,2.09-1.08,3.02-2.79,3.02s-2.79-.93-2.79-3.02v-47.82c0-2.09,1.01-3.02,2.79-3.02s2.79,.93,2.79,3.02v20.58h23.29v-20.58c0-2.09,1.01-3.02,2.79-3.02s2.79,.93,2.79,3.02v47.82c0,2.09-1.08,3.02-2.79,3.02s-2.79-.93-2.79-3.02v-22.21Z"/><path class="e" d="M400.81,175.69h-22.98v16.71c0,2.01-1.01,2.94-2.71,2.94s-2.63-.93-2.63-2.94v-34.82c0-11.3,5.73-16.4,16.95-16.4s16.95,5.11,16.95,16.4v34.74c0,2.09-1.01,3.02-2.79,3.02s-2.79-.93-2.79-3.02v-16.64Zm0-16.95c0-9.13-3.71-12.54-11.45-12.54s-11.53,3.4-11.53,12.54v11.92h22.98v-11.92Z"/><path class="e" d="M452.27,179.64c0,10.76-6.04,16.02-16.87,16.02-9.44,0-14.55-3.64-16.33-10.52-.08-.31-.08-.54-.08-.93,0-1.86,1.24-2.79,2.79-2.79,1.39,0,2.32,.62,2.79,2.17,1.24,4.64,4.41,7.04,10.83,7.04,7.66,0,11.3-3.41,11.3-11.38v-1.08c0-5.34-2.24-7.66-8.28-7.66h-5.11c-9.21,0-13.46-3.25-13.46-12.38v-1.01c0-10.45,6.11-15.94,15.94-15.94,8.51,0,13.15,3.48,15.17,9.98,.08,.31,.15,.62,.15,1.01,0,1.93-1.24,2.79-2.79,2.79-1.39,0-2.32-.54-2.79-2.01-1.32-4.49-4.26-6.73-9.75-6.73-6.73,0-10.37,3.4-10.37,11.3v.39c0,5.34,2.17,7.66,8.2,7.66h5.18c9.13,0,13.46,3.25,13.46,12.38v1.7Z"/></g><g><path class="d" d="M151.92,98.68c93.48,21.91,195.5-62.39,271.95-35.63-8.34-4.59-17.42-8.19-27.34-10.66-29.76-7.3-61.89-2.81-91.31,4.05-34.55,8.04-68.41,19.89-102.51,29.71-16.88,4.84-33.81,9.23-50.79,12.54h0Z"/><path class="c" d="M2.96,64.86c165.29,94.86,363.95-140.56,474.8,33.51C367.31-100.77,118.01,87.86,2.96,64.86h0Z"/></g></svg>